<mxfile host="app.diagrams.net" modified="2024-03-13T07:17:20.816Z" agent="Mozilla/5.0 (Macintosh; Intel Mac OS X 10_15_7) AppleWebKit/537.36 (KHTML, like Gecko) Chrome/122.0.0.0 Safari/537.36" version="24.0.5" etag="UaBseYnR9D545m4KVpxA" type="github">
  <diagram name="第 1 页" id="GacjE3XN_x0uH7swu14T">
    <mxGraphModel>
      <root>
        <mxCell id="0" />
        <mxCell id="1" parent="0" />
      </root>
    </mxGraphModel>
  </diagram>
</mxfile>
